<svg width="24" height="24" viewBox="0 0 24 24" fill="none" xmlns="http://www.w3.org/2000/svg">
<g clip-path="url(#clip0_2_1759)">
<path d="M16 9.00006C15.09 9.00006 14.23 9.18006 13.43 9.50006L12.73 6.45006L16.62 2.56006C17.2 2.00006 17.2 1.03006 16.62 0.440055C16.04 -0.149945 15.08 -0.145945 14.5 0.440055L10.61 4.33006L1.41 2.21006L0 3.62006L7.43 7.50006L3.54 11.4001L1.06 11.0501L0 12.1101L3.18 13.8701L4.95 17.0601L6 16.0001L5.66 13.5001L9.55 9.63006L10.57 11.5901C9.73501 12.6162 9.20813 13.8581 9.05049 15.1716C8.89286 16.4851 9.11095 17.8164 9.67944 19.0109C10.2479 20.2055 11.1435 21.2144 12.2623 21.9204C13.381 22.6265 14.6771 23.0009 16 23.0001C19.87 23.0001 23 19.8701 23 16.0001C23 12.1301 19.87 9.00006 16 9.00006ZM16 21.0001C13.24 21.0001 11 18.7601 11 16.0001C11 13.2401 13.24 11.0001 16 11.0001C18.76 11.0001 21 13.2401 21 16.0001C21 18.7601 18.76 21.0001 16 21.0001ZM16.5 16.2501V12.0001H15V17.0001L18.61 19.1601L19.36 17.9401L16.5 16.2501Z" fill="#05073D"/>
</g>
<defs>
<clipPath id="clip0_2_1759">
<rect width="24" height="24" fill="white"/>
</clipPath>
</defs>
</svg>
