<svg width="24" height="24" viewBox="0 0 24 24" fill="none" xmlns="http://www.w3.org/2000/svg">
<path d="M8.75 10C8.75 9.13805 9.09241 8.3114 9.7019 7.7019C10.3114 7.09241 11.138 6.75 12 6.75C12.862 6.75 13.6886 7.09241 14.2981 7.7019C14.9076 8.3114 15.25 9.13805 15.25 10C15.25 10.862 14.9076 11.6886 14.2981 12.2981C13.6886 12.9076 12.862 13.25 12 13.25C11.138 13.25 10.3114 12.9076 9.7019 12.2981C9.09241 11.6886 8.75 10.862 8.75 10Z" fill="white"/>
<path fill-rule="evenodd" clip-rule="evenodd" d="M3.77334 8.877C3.93968 6.86675 4.85557 4.99247 6.33931 3.62598C7.82305 2.2595 9.76622 1.50066 11.7833 1.5H12.2153C14.2325 1.50066 16.1756 2.2595 17.6594 3.62598C19.1431 4.99247 20.059 6.86675 20.2253 8.877C20.4099 11.1214 19.717 13.3499 18.2923 15.094L13.4993 20.956C13.3177 21.1783 13.0889 21.3575 12.8294 21.4806C12.57 21.6036 12.2865 21.6675 11.9993 21.6675C11.7122 21.6675 11.4287 21.6036 11.1693 21.4806C10.9098 21.3575 10.681 21.1783 10.4993 20.956L5.70734 15.094C4.2823 13.3501 3.58904 11.1215 3.77334 8.877ZM11.9993 5.25C10.7396 5.25 9.53138 5.75045 8.64058 6.64124C7.74979 7.53204 7.24934 8.74022 7.24934 10C7.24934 11.2598 7.74979 12.468 8.64058 13.3588C9.53138 14.2496 10.7396 14.75 11.9993 14.75C13.2591 14.75 14.4673 14.2496 15.3581 13.3588C16.2489 12.468 16.7493 11.2598 16.7493 10C16.7493 8.74022 16.2489 7.53204 15.3581 6.64124C14.4673 5.75045 13.2591 5.25 11.9993 5.25Z" fill="white"/>
</svg>
